<svg width="45" height="30" viewBox="0 0 45 30" fill="none" xmlns="http://www.w3.org/2000/svg">
<path d="M5.205 11.15C3.805 11.15 2.66 10.69 1.77 9.77C0.89 8.85 0.45 7.51 0.45 5.75C0.45 3.98 0.895 2.64 1.785 1.73C2.685 0.819999 3.84 0.364999 5.25 0.364999C6.67 0.364999 7.815 0.814999 8.685 1.715C9.555 2.605 9.99 3.96 9.99 5.78C9.99 7.59 9.545 8.94 8.655 9.83C7.765 10.71 6.615 11.15 5.205 11.15ZM5.22 3.245C4.74 3.245 4.335 3.465 4.005 3.905C3.685 4.345 3.525 4.965 3.525 5.765C3.525 6.555 3.68 7.165 3.99 7.595C4.3 8.015 4.705 8.225 5.205 8.225C5.715 8.225 6.125 8.01 6.435 7.58C6.755 7.15 6.915 6.535 6.915 5.735C6.915 4.935 6.75 4.32 6.42 3.89C6.1 3.46 5.7 3.245 5.22 3.245ZM21.6943 11.015C20.8043 11.015 20.3593 10.915 20.3593 10.715L20.0443 4.7L18.2143 10.79C18.1743 10.91 17.8343 10.97 17.1943 10.97C16.5543 10.97 16.2243 10.915 16.2043 10.805L14.3143 4.64L14.1043 10.625C14.0943 10.775 13.9043 10.88 13.5343 10.94C13.1643 10.99 12.8543 11.015 12.6043 11.015C12.3643 11.015 12.1293 11 11.8993 10.97C11.4193 10.9 11.1843 10.775 11.1943 10.595L11.5393 0.844999C11.5393 0.604999 12.1493 0.484999 13.3693 0.484999C13.7293 0.484999 14.1693 0.514999 14.6893 0.574999C15.2093 0.624999 15.4993 0.729999 15.5593 0.89L17.2393 5.615L18.7093 0.875C18.7993 0.615 19.4893 0.484999 20.7793 0.484999C21.1493 0.484999 21.5893 0.514999 22.0993 0.574999C22.6193 0.624999 22.8793 0.719999 22.8793 0.859999L23.3143 10.7C23.3143 10.81 23.1193 10.89 22.7293 10.94C22.3393 10.99 21.9943 11.015 21.6943 11.015ZM31.8527 11.03C30.9827 11.03 30.5127 10.89 30.4427 10.61L29.9477 8.675H27.5627L27.1277 10.535C27.0677 10.845 26.5877 11 25.6877 11C25.2077 11 24.8527 10.975 24.6227 10.925C24.3927 10.865 24.2777 10.82 24.2777 10.79L26.9327 0.634999C26.9327 0.554999 27.6177 0.514999 28.9877 0.514999C30.3577 0.514999 31.0427 0.554999 31.0427 0.634999L33.6377 10.805C33.6377 10.875 33.4077 10.93 32.9477 10.97C32.4877 11.01 32.1227 11.03 31.8527 11.03ZM27.9377 6.77H29.5127L28.8377 3.665H28.7477L27.9377 6.77ZM37.4968 10.79C37.4968 10.95 37.0218 11.03 36.0718 11.03C35.1118 11.03 34.6318 10.955 34.6318 10.805V1.025C34.6318 0.674999 34.8168 0.499999 35.1868 0.499999H38.0518C40.6818 0.499999 41.9968 1.525 41.9968 3.575C41.9968 4.195 41.8768 4.76 41.6368 5.27C41.3968 5.77 41.0568 6.17 40.6168 6.47L42.5068 9.62C42.4268 9.86 42.1668 10.135 41.7268 10.445C41.1268 10.875 40.6318 11.09 40.2418 11.09C39.8518 11.09 39.5618 10.95 39.3718 10.67L37.9618 7.385H37.4968V10.79ZM37.4968 3.155V5.405H37.5718C38.5218 5.405 38.9968 5.01 38.9968 4.22C38.9968 3.86 38.9018 3.595 38.7118 3.425C38.5318 3.245 38.2318 3.155 37.8118 3.155H37.4968ZM12.7043 16.375C12.7543 16.265 12.8493 16.21 12.9893 16.21C13.1393 16.21 13.2943 16.245 13.4543 16.315C13.8243 16.485 14.0643 16.685 14.1743 16.915C14.2143 16.985 14.2343 17.05 14.2343 17.11C14.2343 17.17 14.2243 17.22 14.2043 17.26L7.1993 29.425C7.1393 29.525 7.0343 29.575 6.8843 29.575C6.7343 29.575 6.5843 29.54 6.4343 29.47C6.0543 29.29 5.8093 29.09 5.6993 28.87C5.6693 28.81 5.6543 28.75 5.6543 28.69C5.6543 28.64 5.6693 28.59 5.6993 28.54L12.7043 16.375ZM17.3879 28.045C17.3879 28.115 16.9129 28.15 15.9629 28.15C15.0229 28.15 14.5529 28.12 14.5529 28.06V25.36C14.5529 25.27 15.0229 25.225 15.9629 25.225C16.9129 25.225 17.3879 25.25 17.3879 25.3V28.045ZM22.8857 28.15C21.4857 28.15 20.3407 27.69 19.4507 26.77C18.5707 25.85 18.1307 24.51 18.1307 22.75C18.1307 20.98 18.5757 19.64 19.4657 18.73C20.3657 17.82 21.5207 17.365 22.9307 17.365C24.3507 17.365 25.4957 17.815 26.3657 18.715C27.2357 19.605 27.6707 20.96 27.6707 22.78C27.6707 24.59 27.2257 25.94 26.3357 26.83C25.4457 27.71 24.2957 28.15 22.8857 28.15ZM22.9007 20.245C22.4207 20.245 22.0157 20.465 21.6857 20.905C21.3657 21.345 21.2057 21.965 21.2057 22.765C21.2057 23.555 21.3607 24.165 21.6707 24.595C21.9807 25.015 22.3857 25.225 22.8857 25.225C23.3957 25.225 23.8057 25.01 24.1157 24.58C24.4357 24.15 24.5957 23.535 24.5957 22.735C24.5957 21.935 24.4307 21.32 24.1007 20.89C23.7807 20.46 23.3807 20.245 22.9007 20.245ZM33.78 17.8C33.78 17.6 34.32 17.5 35.4 17.5C36.49 17.5 37.035 17.6 37.035 17.8V24.685C37.035 25.705 36.67 26.54 35.94 27.19C35.21 27.83 34.2 28.15 32.91 28.15C31.63 28.15 30.585 27.82 29.775 27.16C28.975 26.49 28.575 25.59 28.575 24.46V17.815C28.575 17.615 29.115 17.515 30.195 17.515C31.285 17.515 31.83 17.615 31.83 17.815V24.58C31.83 24.78 31.935 24.94 32.145 25.06C32.365 25.18 32.595 25.24 32.835 25.24C33.075 25.24 33.29 25.185 33.48 25.075C33.68 24.965 33.78 24.8 33.78 24.58V17.8ZM43.9039 17.5C44.0739 17.5 44.1589 17.945 44.1589 18.835C44.1589 19.715 44.0739 20.155 43.9039 20.155H41.1589V21.865H42.9889C43.1589 21.865 43.2439 22.255 43.2439 23.035C43.2439 23.805 43.1639 24.19 43.0039 24.19H41.1589V27.805C41.1589 27.945 40.9689 28.035 40.5889 28.075C40.2189 28.125 39.9089 28.15 39.6589 28.15L38.9539 28.12C38.4639 28.06 38.2189 27.96 38.2189 27.82V17.89C38.2189 17.73 38.2489 17.625 38.3089 17.575C38.3789 17.525 38.4789 17.5 38.6089 17.5H43.9039Z" fill="white"/>
</svg>
