<svg width="46" height="30" viewBox="0 0 46 30" fill="none" xmlns="http://www.w3.org/2000/svg">
<path d="M9.6167 5.38232L9.55811 5.89502C9.46045 6.57861 9.27734 7.23779 9.00879 7.87256C8.74023 8.50732 8.38867 9.07373 7.9541 9.57178C7.51953 10.0649 7.00195 10.4556 6.40137 10.7437C5.80566 11.0269 5.12939 11.1611 4.37256 11.1465C3.6499 11.1318 3.03711 10.9756 2.53418 10.6777C2.03613 10.375 1.64062 9.97461 1.34766 9.47656C1.05957 8.97852 0.866699 8.42432 0.769043 7.81396C0.671387 7.19873 0.661621 6.56885 0.739746 5.92432L0.79834 5.41895C0.895996 4.73535 1.0791 4.07861 1.34766 3.44873C1.62109 2.81885 1.9751 2.25732 2.40967 1.76416C2.84912 1.26611 3.3667 0.875488 3.9624 0.592285C4.56299 0.309082 5.23682 0.174805 5.98389 0.189453C6.70654 0.199219 7.31689 0.355469 7.81494 0.658203C8.31787 0.956055 8.71338 1.354 9.00146 1.85205C9.29443 2.34521 9.48975 2.89941 9.5874 3.51465C9.68506 4.125 9.69482 4.74756 9.6167 5.38232ZM7.38281 5.92432L7.45605 5.39697C7.49512 5.06494 7.51465 4.70605 7.51465 4.32031C7.51953 3.92969 7.47559 3.55615 7.38281 3.19971C7.29004 2.83838 7.12402 2.54297 6.88477 2.31348C6.65039 2.0791 6.31104 1.95215 5.8667 1.93262C5.38818 1.91797 4.97803 2.01318 4.63623 2.21826C4.29932 2.42334 4.01611 2.70166 3.78662 3.05322C3.56201 3.3999 3.38379 3.78076 3.25195 4.1958C3.125 4.60596 3.03223 5.00879 2.97363 5.4043L2.90771 5.93164C2.86377 6.25879 2.83936 6.62012 2.83447 7.01562C2.83447 7.40625 2.88086 7.78223 2.97363 8.14355C3.06641 8.5 3.23242 8.79541 3.47168 9.02979C3.71094 9.26416 4.05273 9.39111 4.49707 9.41064C4.9707 9.42529 5.37598 9.32764 5.71289 9.11768C6.05469 8.90771 6.34033 8.62939 6.56982 8.28271C6.79932 7.93115 6.97998 7.55029 7.11182 7.14014C7.24365 6.7251 7.33398 6.31982 7.38281 5.92432ZM13.0518 0.335938H14.7949L16.0913 8.14355L20.0977 0.335938H21.9873L16.4062 11H14.9414L13.0518 0.335938ZM12.0337 0.335938H13.8501L12.8467 8.06299L12.3267 11H10.188L12.0337 0.335938ZM21.1084 0.335938H22.9321L21.0864 11H18.9331L19.4824 7.87988L21.1084 0.335938ZM28.7988 2.26953L24.5068 11H22.1484L27.8467 0.335938H29.3555L28.7988 2.26953ZM29.6484 11L28.3447 2.04248L28.4253 0.335938H29.8389L31.853 11H29.6484ZM30.1904 7.03027L29.8901 8.75146H24.4043L24.7046 7.03027H30.1904ZM34.6948 0.335938L38.4521 0.343262C39.1016 0.353027 39.6899 0.472656 40.2173 0.702148C40.7495 0.931641 41.1621 1.27588 41.4551 1.73486C41.7529 2.19385 41.8774 2.77734 41.8286 3.48535C41.7798 4.06641 41.6382 4.55713 41.4038 4.95752C41.1743 5.35791 40.8643 5.69727 40.4736 5.97559C40.0879 6.25391 39.6436 6.49316 39.1406 6.69336L38.3936 7.05225H34.9219L35.2148 5.33838L37.6025 5.35303C37.959 5.34814 38.2837 5.27979 38.5767 5.14795C38.8696 5.01611 39.1113 4.82568 39.3018 4.57666C39.4971 4.32275 39.6191 4.01514 39.668 3.65381C39.7119 3.33643 39.6899 3.06055 39.6021 2.82617C39.519 2.5918 39.375 2.40869 39.1699 2.27686C38.9648 2.14502 38.7036 2.07422 38.3862 2.06445L36.5479 2.05713L34.9951 11H32.8491L34.6948 0.335938ZM38.6865 11L37.1484 6.24658L39.3091 6.23193L40.9717 10.8828V11H38.6865ZM13.7256 18.3359L7.9248 29.9155H6.3208L12.1216 18.3359H13.7256ZM13.0957 28.0186C13.0908 27.6865 13.2007 27.4131 13.4253 27.1982C13.6548 26.9834 13.9331 26.876 14.2603 26.876C14.5728 26.8711 14.8413 26.9688 15.0659 27.1689C15.2954 27.3643 15.4126 27.623 15.4175 27.9453C15.4224 28.2773 15.3101 28.5508 15.0806 28.7656C14.856 28.9805 14.5801 29.0879 14.2529 29.0879C13.9404 29.0928 13.6694 28.9976 13.4399 28.8022C13.2153 28.6021 13.1006 28.3408 13.0957 28.0186ZM26.6235 23.3823L26.5649 23.895C26.4673 24.5786 26.2842 25.2378 26.0156 25.8726C25.7471 26.5073 25.3955 27.0737 24.9609 27.5718C24.5264 28.0649 24.0088 28.4556 23.4082 28.7437C22.8125 29.0269 22.1362 29.1611 21.3794 29.1465C20.6567 29.1318 20.0439 28.9756 19.541 28.6777C19.043 28.375 18.6475 27.9746 18.3545 27.4766C18.0664 26.9785 17.8735 26.4243 17.7759 25.814C17.6782 25.1987 17.6685 24.5688 17.7466 23.9243L17.8052 23.4189C17.9028 22.7354 18.0859 22.0786 18.3545 21.4487C18.6279 20.8188 18.9819 20.2573 19.4165 19.7642C19.856 19.2661 20.3735 18.8755 20.9692 18.5923C21.5698 18.3091 22.2437 18.1748 22.9907 18.1895C23.7134 18.1992 24.3237 18.3555 24.8218 18.6582C25.3247 18.9561 25.7202 19.354 26.0083 19.8521C26.3013 20.3452 26.4966 20.8994 26.5942 21.5146C26.6919 22.125 26.7017 22.7476 26.6235 23.3823ZM24.3896 23.9243L24.4629 23.397C24.502 23.0649 24.5215 22.7061 24.5215 22.3203C24.5264 21.9297 24.4824 21.5562 24.3896 21.1997C24.2969 20.8384 24.1309 20.543 23.8916 20.3135C23.6572 20.0791 23.3179 19.9521 22.8735 19.9326C22.395 19.918 21.9849 20.0132 21.6431 20.2183C21.3062 20.4233 21.0229 20.7017 20.7935 21.0532C20.5688 21.3999 20.3906 21.7808 20.2588 22.1958C20.1318 22.606 20.0391 23.0088 19.9805 23.4043L19.9146 23.9316C19.8706 24.2588 19.8462 24.6201 19.8413 25.0156C19.8413 25.4062 19.8877 25.7822 19.9805 26.1436C20.0732 26.5 20.2393 26.7954 20.4785 27.0298C20.7178 27.2642 21.0596 27.3911 21.5039 27.4106C21.9775 27.4253 22.3828 27.3276 22.7197 27.1177C23.0615 26.9077 23.3472 26.6294 23.5767 26.2827C23.8062 25.9312 23.9868 25.5503 24.1187 25.1401C24.2505 24.7251 24.3408 24.3198 24.3896 23.9243ZM34.7607 18.3359H36.8994L35.6982 25.3745C35.5859 26.1655 35.3247 26.8467 34.9146 27.418C34.5093 27.9844 33.9868 28.4189 33.3472 28.7217C32.7124 29.0195 31.9971 29.1636 31.2012 29.1538C30.459 29.1392 29.812 28.978 29.2603 28.6704C28.7134 28.3579 28.3032 27.9233 28.0298 27.3667C27.7563 26.8052 27.666 26.1436 27.7588 25.3818L28.96 18.3359H31.0986L29.9048 25.3892C29.8608 25.7554 29.873 26.0923 29.9414 26.3999C30.0146 26.7026 30.1611 26.9492 30.3809 27.1396C30.6055 27.3252 30.9229 27.4229 31.333 27.4326C31.7676 27.4473 32.1387 27.3691 32.4463 27.1982C32.7539 27.0273 33.0005 26.7856 33.186 26.4731C33.3716 26.1558 33.4961 25.792 33.5596 25.3818L34.7607 18.3359ZM40.7886 18.3359L38.9355 29H36.7896L38.6353 18.3359H40.7886ZM44.1211 22.8916L43.8208 24.6055H39.104L39.4043 22.8916H44.1211ZM45.4028 18.3359L45.1099 20.0571H39.895L40.1953 18.3359H45.4028Z" fill="white"/>
</svg>
